<?xml version="1.0" encoding="UTF-8"?>
<svg xmlns="http://www.w3.org/2000/svg" xmlns:xlink="http://www.w3.org/1999/xlink" width="375pt" height="374.999991pt" viewBox="0 0 375 374.999991" version="1.2">
<defs>
<clipPath id="clip1">
  <path d="M 88.113281 153 L 298 153 L 298 183 L 88.113281 183 Z M 88.113281 153 "/>
</clipPath>
<clipPath id="clip2">
  <path d="M 88.113281 153 L 298 153 L 298 184 L 88.113281 184 Z M 88.113281 153 "/>
</clipPath>
<clipPath id="clip3">
  <path d="M 148 174 L 196 174 L 196 255.285156 L 148 255.285156 Z M 148 174 "/>
</clipPath>
<clipPath id="clip4">
  <path d="M 134 138.285156 L 187 138.285156 L 187 203 L 134 203 Z M 134 138.285156 "/>
</clipPath>
<clipPath id="clip5">
  <path d="M 200 138.285156 L 254 138.285156 L 254 203 L 200 203 Z M 200 138.285156 "/>
</clipPath>
</defs>
<g id="surface1">
<g clip-path="url(#clip1)" clip-rule="nonzero">
<path style=" stroke:none;fill-rule:nonzero;fill:rgb(64.709473%,21.958923%,16.079712%);fill-opacity:1;" d="M 297.214844 182.320312 L 192.140625 172.277344 L 88.957031 182.320312 L 88.957031 153.921875 L 192.46875 165.933594 L 297.214844 153.921875 L 297.214844 182.320312 "/>
</g>
<g clip-path="url(#clip2)" clip-rule="nonzero">
<path style=" stroke:none;fill-rule:nonzero;fill:rgb(100%,100%,100%);fill-opacity:1;" d="M 297.214844 182.320312 L 297.289062 181.554688 L 192.214844 171.511719 L 192.066406 171.511719 L 89.726562 181.472656 L 89.726562 154.785156 L 192.378906 166.695312 C 192.433594 166.703125 192.5 166.703125 192.554688 166.695312 L 296.445312 154.785156 L 296.445312 182.320312 L 297.214844 182.320312 L 297.289062 181.554688 L 297.214844 182.320312 L 297.988281 182.320312 L 297.988281 153.921875 C 297.988281 153.699219 297.894531 153.492188 297.730469 153.347656 C 297.566406 153.199219 297.347656 153.132812 297.128906 153.15625 L 192.46875 165.15625 L 89.042969 153.15625 C 88.824219 153.132812 88.605469 153.199219 88.441406 153.347656 C 88.277344 153.492188 88.183594 153.699219 88.183594 153.921875 L 88.183594 182.320312 C 88.183594 182.539062 88.277344 182.746094 88.4375 182.890625 C 88.597656 183.039062 88.8125 183.109375 89.03125 183.085938 L 192.140625 173.050781 L 297.144531 183.085938 C 297.359375 183.105469 297.574219 183.039062 297.738281 182.890625 C 297.898438 182.746094 297.988281 182.539062 297.988281 182.320312 L 297.214844 182.320312 "/>
</g>
<path style=" stroke:none;fill-rule:nonzero;fill:rgb(64.709473%,21.958923%,16.079712%);fill-opacity:1;" d="M 210.714844 231.347656 C 211.089844 232.179688 211.472656 233.007812 211.859375 233.824219 C 212.089844 234.308594 212.320312 234.785156 212.554688 235.261719 C 212.777344 235.722656 213.003906 236.175781 213.230469 236.628906 C 213.460938 237.074219 213.6875 237.519531 213.914062 237.960938 C 214.132812 238.378906 214.355469 238.789062 214.574219 239.203125 C 215.195312 240.351562 215.828125 241.472656 216.476562 242.566406 C 217.277344 243.917969 218.097656 245.222656 218.945312 246.472656 C 219.679688 247.558594 220.429688 248.601562 221.195312 249.601562 C 221.195312 249.601562 228.390625 240.9375 230.441406 231.832031 C 230.929688 230.035156 231.414062 228.238281 231.902344 226.4375 C 232.214844 225.285156 232.527344 224.128906 232.839844 222.976562 C 232.839844 222.976562 232.582031 214.21875 227.175781 203.683594 C 226.476562 202.316406 225.6875 200.921875 224.804688 199.511719 C 223.945312 198.148438 223.003906 196.769531 221.953125 195.386719 C 220.464844 193.425781 218.769531 191.464844 216.84375 189.542969 C 214.621094 187.324219 212.089844 185.160156 209.210938 183.109375 C 207.109375 181.613281 205.105469 179.917969 202.972656 178.4375 C 202.207031 177.90625 201.425781 177.402344 200.617188 176.945312 C 199.765625 176.460938 198.882812 176.035156 197.957031 175.679688 C 197.0625 175.335938 196.257812 175.160156 195.632812 175.238281 C 194.976562 175.320312 194.511719 175.675781 194.328125 176.402344 C 194.070312 177.425781 194.359375 179.1875 195.464844 181.957031 C 195.464844 181.957031 195.472656 182.027344 195.503906 182.164062 C 195.53125 182.304688 195.570312 182.515625 195.628906 182.792969 C 196.085938 185.050781 197.488281 191.6875 199.832031 200.210938 C 202.367188 209.433594 205.996094 220.867188 210.714844 231.347656 "/>
<path style=" stroke:none;fill-rule:nonzero;fill:rgb(100%,100%,100%);fill-opacity:1;" d="M 210.714844 231.347656 L 210.011719 231.664062 C 210.390625 232.5 210.769531 233.332031 211.164062 234.152344 L 211.160156 234.152344 C 211.390625 234.636719 211.625 235.121094 211.859375 235.601562 C 212.085938 236.0625 212.3125 236.519531 212.542969 236.976562 C 212.769531 237.425781 213 237.871094 213.230469 238.316406 C 213.449219 238.734375 213.671875 239.152344 213.894531 239.566406 C 214.519531 240.722656 215.15625 241.855469 215.8125 242.957031 C 216.617188 244.320312 217.449219 245.640625 218.304688 246.90625 C 219.046875 248 219.804688 249.058594 220.582031 250.070312 C 220.726562 250.253906 220.949219 250.363281 221.183594 250.367188 C 221.414062 250.375 221.640625 250.269531 221.792969 250.089844 C 221.804688 250.074219 223.625 247.882812 225.707031 244.535156 C 227.785156 241.1875 230.136719 236.6875 231.195312 232 L 230.441406 231.832031 L 231.1875 232.03125 C 231.675781 230.234375 232.160156 228.4375 232.648438 226.640625 C 232.960938 225.484375 233.273438 224.332031 233.585938 223.175781 C 233.605469 223.097656 233.613281 223.03125 233.609375 222.953125 C 233.609375 222.878906 233.339844 214.015625 227.863281 203.332031 C 227.152344 201.949219 226.355469 200.53125 225.457031 199.101562 C 224.589844 197.71875 223.632812 196.320312 222.566406 194.921875 C 221.058594 192.933594 219.339844 190.945312 217.390625 189 C 215.136719 186.75 212.574219 184.558594 209.65625 182.480469 C 207.59375 181.015625 205.585938 179.316406 203.414062 177.804688 C 202.636719 177.261719 201.832031 176.746094 200.996094 176.273438 C 200.117188 175.777344 199.199219 175.328125 198.234375 174.960938 C 197.425781 174.652344 196.667969 174.453125 195.941406 174.449219 C 195.808594 174.449219 195.671875 174.457031 195.53125 174.476562 L 195.539062 174.472656 C 195.097656 174.527344 194.65625 174.6875 194.300781 174.996094 C 193.941406 175.300781 193.699219 175.734375 193.578125 176.214844 C 193.503906 176.519531 193.46875 176.84375 193.464844 177.203125 C 193.472656 178.4375 193.871094 180.039062 194.742188 182.242188 L 195.464844 181.957031 L 194.699219 182.089844 C 194.703125 182.097656 194.71875 182.171875 194.746094 182.316406 L 194.746094 182.3125 C 194.773438 182.449219 194.8125 182.664062 194.871094 182.945312 C 195.332031 185.214844 196.738281 191.867188 199.085938 200.417969 C 201.628906 209.664062 205.269531 221.125 210.011719 231.664062 L 210.714844 231.347656 L 211.421875 231.035156 C 206.726562 220.605469 203.105469 209.207031 200.578125 200.007812 C 198.238281 191.507812 196.839844 184.886719 196.382812 182.640625 C 196.328125 182.367188 196.289062 182.15625 196.257812 182.011719 L 196.257812 182.007812 C 196.246094 181.945312 196.234375 181.898438 196.230469 181.867188 L 196.222656 181.832031 L 196.222656 181.828125 C 196.210938 181.769531 196.199219 181.726562 196.179688 181.675781 C 195.339844 179.570312 195.007812 178.089844 195.011719 177.203125 C 195.011719 176.949219 195.035156 176.746094 195.078125 176.59375 C 195.140625 176.347656 195.222656 176.234375 195.308594 176.160156 C 195.394531 176.089844 195.511719 176.03125 195.726562 176.003906 L 195.730469 176 C 195.789062 175.992188 195.859375 175.988281 195.941406 175.988281 C 196.363281 175.988281 196.980469 176.128906 197.679688 176.398438 C 198.5625 176.734375 199.410156 177.148438 200.238281 177.613281 C 201.019531 178.054688 201.78125 178.546875 202.53125 179.066406 C 204.625 180.519531 206.625 182.214844 208.757812 183.734375 C 211.605469 185.761719 214.105469 187.898438 216.296875 190.085938 C 218.199219 191.984375 219.867188 193.917969 221.335938 195.851562 C 222.371094 197.214844 223.304688 198.574219 224.148438 199.917969 C 225.019531 201.308594 225.796875 202.683594 226.488281 204.03125 C 229.152344 209.226562 230.550781 213.988281 231.277344 217.4375 C 231.644531 219.164062 231.839844 220.5625 231.949219 221.527344 C 232 222.007812 232.03125 222.378906 232.046875 222.628906 C 232.054688 222.753906 232.058594 222.847656 232.0625 222.910156 L 232.066406 222.980469 L 232.070312 222.996094 L 232.839844 222.976562 L 232.09375 222.773438 C 231.78125 223.929688 231.46875 225.085938 231.15625 226.238281 C 230.667969 228.035156 230.183594 229.832031 229.695312 231.632812 L 229.6875 231.664062 C 228.695312 236.082031 226.421875 240.464844 224.394531 243.722656 C 223.378906 245.355469 222.425781 246.707031 221.730469 247.648438 C 221.382812 248.117188 221.097656 248.484375 220.902344 248.734375 C 220.804688 248.859375 220.726562 248.953125 220.679688 249.019531 L 220.621094 249.089844 L 220.601562 249.109375 L 221.195312 249.601562 L 221.808594 249.132812 C 221.050781 248.148438 220.308594 247.117188 219.585938 246.046875 C 218.75 244.804688 217.933594 243.511719 217.140625 242.175781 C 216.5 241.089844 215.871094 239.976562 215.257812 238.839844 C 215.039062 238.429688 214.816406 238.019531 214.601562 237.605469 C 214.371094 237.164062 214.144531 236.726562 213.921875 236.28125 C 213.695312 235.835938 213.472656 235.382812 213.25 234.925781 L 213.246094 234.925781 C 213.015625 234.449219 212.785156 233.972656 212.558594 233.496094 L 212.554688 233.496094 C 212.171875 232.679688 211.792969 231.859375 211.421875 231.035156 L 210.714844 231.347656 "/>
<path style=" stroke:none;fill-rule:nonzero;fill:rgb(64.709473%,21.958923%,16.079712%);fill-opacity:1;" d="M 149.753906 228.207031 C 150.828125 230.664062 151.511719 232.257812 152.214844 233.886719 C 152.859375 235.378906 153.515625 236.898438 154.492188 239.136719 C 155.566406 241.59375 156.652344 243.484375 157.726562 245.941406 C 158.480469 247.664062 160.117188 251.722656 161.238281 254.417969 C 161.632812 254.285156 161.988281 254.050781 162.285156 253.648438 C 163.46875 252.039062 164.632812 250.296875 165.785156 248.449219 C 167.386719 245.882812 168.957031 243.105469 170.480469 240.203125 C 183.328125 215.722656 193.019531 181.957031 193.019531 181.957031 C 194.238281 178.890625 194.464844 177.0625 194.050781 176.097656 C 193.566406 174.980469 192.214844 175.03125 190.535156 175.675781 C 188.261719 176.542969 185.382812 178.488281 183.238281 180.082031 C 181.785156 181.15625 180.394531 182.296875 178.933594 183.355469 C 177.320312 184.519531 175.785156 185.746094 174.335938 187.019531 C 157.277344 201.945312 151.074219 223.101562 149.949219 227.417969 C 149.816406 227.933594 149.753906 228.207031 149.753906 228.207031 "/>
<g clip-path="url(#clip3)" clip-rule="nonzero">
<path style=" stroke:none;fill-rule:nonzero;fill:rgb(100%,100%,100%);fill-opacity:1;" d="M 149.753906 228.207031 L 149.046875 228.515625 C 150.117188 230.96875 150.800781 232.558594 151.503906 234.191406 C 152.148438 235.679688 152.804688 237.203125 153.785156 239.445312 C 154.882812 241.945312 155.964844 243.835938 157.015625 246.246094 C 157.761719 247.949219 159.402344 252.015625 160.527344 254.710938 C 160.679688 255.085938 161.105469 255.277344 161.492188 255.144531 C 162 254.972656 162.523438 254.636719 162.90625 254.101562 C 164.101562 252.472656 165.28125 250.71875 166.441406 248.855469 C 168.054688 246.265625 169.628906 243.476562 171.164062 240.558594 C 177.617188 228.261719 183.257812 213.675781 187.296875 202.152344 C 191.328125 190.632812 193.757812 182.179688 193.761719 182.167969 L 193.019531 181.957031 L 193.734375 182.242188 C 194.605469 180.039062 195.007812 178.4375 195.011719 177.203125 C 195.011719 176.675781 194.933594 176.207031 194.757812 175.792969 C 194.570312 175.351562 194.242188 174.976562 193.835938 174.757812 C 193.433594 174.53125 192.984375 174.449219 192.539062 174.449219 C 191.816406 174.453125 191.058594 174.652344 190.257812 174.957031 C 189.042969 175.421875 187.726562 176.144531 186.425781 176.953125 C 185.128906 177.761719 183.859375 178.660156 182.773438 179.464844 C 181.300781 180.550781 179.914062 181.691406 178.476562 182.730469 C 176.84375 183.910156 175.296875 185.152344 173.824219 186.4375 C 165.195312 193.992188 159.332031 203.097656 155.476562 210.855469 C 151.621094 218.613281 149.773438 225.03125 149.199219 227.226562 C 149.066406 227.746094 149 228.03125 149 228.039062 C 148.960938 228.199219 148.980469 228.363281 149.046875 228.515625 L 149.753906 228.207031 L 150.507812 228.375 L 150.515625 228.328125 C 150.539062 228.234375 150.597656 227.992188 150.695312 227.613281 C 151.246094 225.492188 153.066406 219.171875 156.859375 211.539062 C 160.652344 203.90625 166.417969 194.96875 174.84375 187.59375 C 176.277344 186.339844 177.792969 185.128906 179.382812 183.976562 C 180.871094 182.902344 182.261719 181.757812 183.695312 180.699219 C 184.757812 179.910156 186 179.039062 187.246094 178.257812 C 188.492188 177.480469 189.746094 176.800781 190.808594 176.394531 C 191.507812 176.125 192.121094 175.988281 192.539062 175.988281 C 192.800781 175.988281 192.976562 176.039062 193.082031 176.097656 C 193.1875 176.164062 193.257812 176.230469 193.339844 176.402344 L 193.339844 176.398438 C 193.410156 176.5625 193.464844 176.824219 193.464844 177.203125 C 193.472656 178.089844 193.136719 179.574219 192.296875 181.675781 L 192.273438 181.746094 C 192.273438 181.746094 192.238281 181.875 192.164062 182.128906 C 191.609375 184.015625 189.019531 192.730469 185.0625 203.835938 C 181.109375 214.933594 175.789062 228.425781 169.796875 239.84375 C 168.277344 242.734375 166.71875 245.492188 165.128906 248.042969 C 163.988281 249.875 162.828125 251.601562 161.660156 253.195312 C 161.457031 253.46875 161.261719 253.59375 160.988281 253.691406 L 161.238281 254.417969 L 161.953125 254.125 C 160.832031 251.429688 159.195312 247.378906 158.429688 245.632812 C 157.335938 243.132812 156.253906 241.242188 155.199219 238.828125 C 154.222656 236.59375 153.566406 235.074219 152.925781 233.582031 C 152.222656 231.953125 151.535156 230.359375 150.460938 227.898438 L 149.753906 228.207031 L 150.507812 228.375 L 149.753906 228.207031 "/>
</g>
<path style=" stroke:none;fill-rule:nonzero;fill:rgb(64.709473%,21.958923%,16.079712%);fill-opacity:1;" d="M 137.101562 200.789062 C 137.523438 201.566406 138.238281 201.9375 139.328125 201.988281 C 140.078125 202.023438 141.003906 201.90625 142.136719 201.667969 C 144.625 201.140625 148.105469 200.015625 152.859375 198.585938 C 154.707031 198.027344 156.746094 197.425781 158.996094 196.792969 C 168.886719 194.011719 176.640625 187.828125 181.1875 183.429688 C 184.089844 180.621094 185.679688 178.539062 185.679688 178.539062 C 185.679688 178.195312 185.679688 177.847656 185.679688 177.503906 C 185.679688 176.992188 185.679688 176.480469 185.679688 175.96875 C 185.679688 175.675781 185.679688 175.382812 185.679688 175.09375 C 185.679688 174.769531 185.679688 174.445312 185.679688 174.121094 C 185.679688 172.859375 185.679688 171.59375 185.679688 170.332031 C 185.683594 169.074219 185.683594 167.8125 185.683594 166.554688 C 185.679688 165.332031 185.679688 164.113281 185.679688 162.894531 C 185.679688 162.539062 185.679688 162.1875 185.679688 161.832031 C 185.679688 161.832031 183.988281 159.890625 180.976562 157.238281 C 176.191406 153.023438 168.074219 147.027344 158.128906 144.230469 C 156.058594 143.648438 154.167969 143.089844 152.445312 142.574219 C 147.675781 141.140625 144.171875 140 141.636719 139.429688 C 140.488281 139.171875 139.535156 139.03125 138.757812 139.035156 C 137.617188 139.039062 136.847656 139.355469 136.367188 140.0625 C 135.839844 140.828125 135.761719 141.835938 135.640625 142.730469 C 135.304688 145.308594 135.074219 149.195312 134.949219 153.789062 C 134.824219 158.523438 134.804688 164.007812 134.894531 169.578125 C 134.984375 175.164062 135.171875 180.835938 135.457031 185.925781 C 135.53125 187.25 135.613281 188.53125 135.699219 189.761719 C 135.777344 190.871094 135.863281 191.941406 135.949219 192.960938 C 136.105469 194.75 136.277344 196.390625 136.460938 197.832031 C 136.585938 198.796875 136.621094 199.914062 137.101562 200.789062 "/>
<g clip-path="url(#clip4)" clip-rule="nonzero">
<path style=" stroke:none;fill-rule:nonzero;fill:rgb(100%,100%,100%);fill-opacity:1;" d="M 137.101562 200.789062 L 136.421875 201.15625 C 136.691406 201.660156 137.101562 202.074219 137.597656 202.339844 C 138.097656 202.605469 138.667969 202.726562 139.292969 202.757812 C 139.394531 202.761719 139.5 202.761719 139.601562 202.761719 C 140.386719 202.761719 141.265625 202.636719 142.296875 202.421875 C 144.859375 201.878906 148.332031 200.75 153.078125 199.320312 C 154.925781 198.765625 156.960938 198.164062 159.207031 197.53125 C 169.28125 194.695312 177.125 188.429688 181.722656 183.980469 C 184.660156 181.136719 186.277344 179.027344 186.292969 179.007812 C 186.398438 178.871094 186.453125 178.707031 186.453125 178.539062 C 186.453125 178.195312 186.453125 177.847656 186.453125 177.503906 C 186.453125 176.992188 186.453125 176.480469 186.453125 175.96875 C 186.453125 175.675781 186.453125 175.382812 186.453125 175.09375 C 186.453125 174.769531 186.453125 174.445312 186.453125 174.121094 C 186.453125 172.859375 186.453125 171.59375 186.453125 170.332031 C 186.453125 169.074219 186.453125 167.8125 186.453125 166.554688 C 186.453125 165.332031 186.453125 164.113281 186.453125 162.894531 C 186.453125 162.539062 186.453125 162.1875 186.453125 161.832031 C 186.453125 161.652344 186.382812 161.46875 186.265625 161.332031 C 186.246094 161.308594 184.53125 159.339844 181.488281 156.660156 C 176.652344 152.402344 168.457031 146.335938 158.335938 143.488281 C 156.273438 142.910156 154.390625 142.351562 152.667969 141.835938 C 147.90625 140.40625 144.40625 139.265625 141.804688 138.679688 C 140.636719 138.417969 139.648438 138.265625 138.78125 138.265625 L 138.71875 138.265625 L 138.757812 139.035156 L 138.753906 138.265625 C 138.113281 138.265625 137.53125 138.355469 137.011719 138.574219 C 136.492188 138.792969 136.042969 139.160156 135.726562 139.628906 C 135.386719 140.128906 135.210938 140.667969 135.097656 141.183594 C 134.984375 141.699219 134.933594 142.195312 134.878906 142.628906 C 134.53125 145.261719 134.304688 149.160156 134.179688 153.765625 C 134.105469 156.550781 134.066406 159.589844 134.066406 162.75 C 134.066406 164.988281 134.085938 167.28125 134.121094 169.59375 C 134.210938 175.183594 134.398438 180.863281 134.6875 185.972656 C 134.761719 187.292969 134.84375 188.578125 134.929688 189.8125 C 135.007812 190.929688 135.089844 192 135.179688 193.027344 C 135.335938 194.824219 135.507812 196.472656 135.695312 197.929688 C 135.757812 198.386719 135.796875 198.917969 135.886719 199.46875 C 135.976562 200.019531 136.121094 200.605469 136.421875 201.15625 L 137.101562 200.789062 L 137.777344 200.421875 C 137.601562 200.101562 137.484375 199.6875 137.410156 199.21875 C 137.332031 198.753906 137.292969 198.242188 137.230469 197.730469 C 137.042969 196.304688 136.875 194.675781 136.71875 192.894531 C 136.632812 191.878906 136.546875 190.8125 136.46875 189.707031 C 136.382812 188.480469 136.300781 187.203125 136.230469 185.886719 C 135.941406 180.804688 135.753906 175.140625 135.664062 169.566406 C 135.628906 167.265625 135.609375 164.976562 135.609375 162.75 C 135.609375 159.601562 135.648438 156.574219 135.722656 153.808594 C 135.84375 149.234375 136.074219 145.359375 136.410156 142.828125 C 136.46875 142.367188 136.519531 141.914062 136.609375 141.511719 C 136.695312 141.105469 136.820312 140.761719 137.003906 140.492188 C 137.171875 140.253906 137.347656 140.109375 137.617188 139.992188 C 137.886719 139.878906 138.257812 139.804688 138.757812 139.804688 L 138.792969 139.804688 L 138.769531 139.285156 L 138.769531 139.804688 L 138.792969 139.804688 L 138.769531 139.285156 L 138.769531 139.804688 L 138.78125 139.804688 C 139.460938 139.800781 140.359375 139.933594 141.46875 140.179688 C 143.9375 140.734375 147.449219 141.875 152.222656 143.308594 C 153.949219 143.828125 155.84375 144.386719 157.917969 144.96875 C 167.691406 147.714844 175.734375 153.644531 180.464844 157.8125 C 181.957031 159.125 183.117188 160.261719 183.90625 161.066406 C 184.300781 161.46875 184.597656 161.792969 184.800781 162.007812 C 184.902344 162.117188 184.976562 162.203125 185.027344 162.257812 L 185.082031 162.320312 L 185.097656 162.339844 L 185.679688 161.832031 L 184.910156 161.832031 C 184.910156 162.1875 184.910156 162.539062 184.910156 162.894531 C 184.910156 164.113281 184.910156 165.332031 184.910156 166.554688 C 184.910156 167.8125 184.910156 169.074219 184.910156 170.332031 C 184.910156 171.59375 184.910156 172.859375 184.910156 174.121094 C 184.910156 174.445312 184.910156 174.769531 184.910156 175.09375 C 184.910156 175.382812 184.910156 175.675781 184.910156 175.96875 C 184.910156 176.480469 184.910156 176.992188 184.910156 177.503906 C 184.910156 177.847656 184.910156 178.195312 184.910156 178.539062 L 185.679688 178.539062 L 185.066406 178.070312 L 185.050781 178.09375 C 184.882812 178.308594 183.335938 180.273438 180.648438 182.875 C 176.160156 187.222656 168.488281 193.328125 158.785156 196.050781 C 156.53125 196.6875 154.484375 197.289062 152.632812 197.847656 C 147.878906 199.28125 144.394531 200.40625 141.976562 200.914062 C 141.007812 201.121094 140.214844 201.226562 139.601562 201.222656 C 139.519531 201.222656 139.441406 201.222656 139.367188 201.21875 C 138.898438 201.195312 138.5625 201.109375 138.328125 200.980469 C 138.089844 200.851562 137.929688 200.695312 137.777344 200.421875 L 137.101562 200.789062 "/>
</g>
<path style=" stroke:none;fill-rule:nonzero;fill:rgb(64.709473%,21.958923%,16.079712%);fill-opacity:1;" d="M 202.320312 178.539062 C 202.320312 178.539062 204.957031 181.984375 209.625 185.992188 C 214.269531 189.976562 220.925781 194.519531 229.003906 196.792969 C 229.4375 196.914062 229.867188 197.035156 230.289062 197.15625 C 240.554688 200.089844 246.199219 202.296875 249.011719 201.960938 C 249.914062 201.851562 250.523438 201.480469 250.902344 200.789062 C 251.09375 200.445312 251.21875 200.015625 251.304688 199.503906 C 251.601562 197.601562 251.863281 195.214844 252.089844 192.496094 C 252.21875 190.972656 252.335938 189.34375 252.441406 187.640625 C 252.578125 185.441406 252.695312 183.117188 252.792969 180.71875 C 252.96875 176.515625 253.082031 172.09375 253.128906 167.769531 C 253.195312 162.332031 253.160156 157.042969 253.011719 152.539062 C 252.960938 150.902344 252.894531 149.363281 252.8125 147.960938 C 252.710938 146.207031 252.585938 144.660156 252.4375 143.378906 C 252.3125 142.296875 252.269531 140.988281 251.632812 140.0625 C 251.199219 139.425781 250.535156 139.105469 249.574219 139.042969 C 246.605469 138.855469 240.8125 141.132812 230.335938 144.097656 C 222.722656 146.25 215.699219 149.992188 209.335938 154.648438 C 204.3125 158.320312 201.285156 161.40625 201.285156 161.40625 C 201.351562 161.871094 201.417969 162.339844 201.484375 162.808594 C 201.5625 163.375 201.644531 163.949219 201.722656 164.519531 C 201.789062 164.972656 201.851562 165.429688 201.914062 165.886719 C 202.09375 167.140625 202.320312 168.390625 202.320312 169.660156 C 202.320312 170.671875 202.320312 171.6875 202.320312 172.699219 C 202.320312 173.277344 202.320312 173.855469 202.320312 174.433594 C 202.320312 174.878906 202.320312 175.328125 202.320312 175.777344 C 202.320312 176.695312 202.320312 177.617188 202.320312 178.539062 "/>
<g clip-path="url(#clip5)" clip-rule="nonzero">
<path style=" stroke:none;fill-rule:nonzero;fill:rgb(100%,100%,100%);fill-opacity:1;" d="M 202.320312 178.539062 L 201.707031 179.007812 C 201.730469 179.035156 204.394531 182.519531 209.121094 186.574219 C 213.824219 190.605469 220.5625 195.214844 228.796875 197.53125 C 229.226562 197.652344 229.652344 197.777344 230.074219 197.894531 C 234.847656 199.257812 238.621094 200.464844 241.59375 201.339844 C 243.078125 201.777344 244.367188 202.128906 245.488281 202.375 C 246.609375 202.621094 247.558594 202.761719 248.398438 202.761719 C 248.644531 202.761719 248.875 202.75 249.105469 202.726562 C 249.636719 202.660156 250.132812 202.511719 250.558594 202.25 C 250.988281 201.984375 251.335938 201.605469 251.582031 201.15625 C 251.824219 200.710938 251.972656 200.199219 252.066406 199.621094 C 252.367188 197.691406 252.628906 195.292969 252.859375 192.5625 C 252.988281 191.03125 253.105469 189.398438 253.210938 187.6875 C 253.347656 185.484375 253.46875 183.152344 253.566406 180.753906 C 253.738281 176.539062 253.855469 172.109375 253.902344 167.777344 C 253.921875 166.070312 253.933594 164.382812 253.933594 162.726562 C 253.933594 159.089844 253.882812 155.621094 253.785156 152.515625 C 253.730469 150.867188 253.664062 149.328125 253.582031 147.914062 C 253.480469 146.152344 253.351562 144.589844 253.203125 143.289062 C 253.144531 142.773438 253.101562 142.15625 252.984375 141.523438 C 252.867188 140.890625 252.679688 140.226562 252.273438 139.628906 C 251.988281 139.207031 251.597656 138.867188 251.140625 138.648438 C 250.6875 138.421875 250.175781 138.3125 249.625 138.277344 C 249.492188 138.269531 249.355469 138.265625 249.214844 138.265625 C 248.355469 138.265625 247.375 138.414062 246.21875 138.671875 C 242.753906 139.449219 237.664062 141.226562 230.125 143.359375 C 222.40625 145.539062 215.300781 149.328125 208.875 154.027344 C 203.808594 157.730469 200.757812 160.84375 200.734375 160.863281 C 200.566406 161.039062 200.488281 161.277344 200.519531 161.511719 C 200.585938 161.980469 200.652344 162.445312 200.71875 162.914062 C 200.796875 163.484375 200.878906 164.054688 200.960938 164.625 C 201.023438 165.082031 201.085938 165.539062 201.152344 165.996094 C 201.332031 167.269531 201.550781 168.480469 201.546875 169.660156 C 201.546875 170.671875 201.546875 171.6875 201.546875 172.699219 C 201.546875 173.277344 201.546875 173.855469 201.550781 174.433594 C 201.546875 174.878906 201.546875 175.328125 201.550781 175.777344 C 201.546875 176.695312 201.546875 177.617188 201.550781 178.539062 C 201.550781 178.707031 201.605469 178.871094 201.707031 179.007812 L 202.320312 178.539062 L 203.09375 178.539062 C 203.09375 177.617188 203.09375 176.695312 203.09375 175.777344 C 203.09375 175.328125 203.09375 174.878906 203.09375 174.433594 C 203.09375 173.855469 203.09375 173.277344 203.09375 172.699219 C 203.09375 171.6875 203.09375 170.671875 203.09375 169.660156 C 203.09375 168.296875 202.851562 167.011719 202.679688 165.78125 C 202.617188 165.324219 202.550781 164.867188 202.488281 164.410156 C 202.40625 163.84375 202.328125 163.273438 202.246094 162.703125 C 202.183594 162.230469 202.117188 161.761719 202.050781 161.296875 L 201.285156 161.40625 L 201.835938 161.941406 L 201.867188 161.910156 C 202.199219 161.578125 205.125 158.679688 209.789062 155.269531 C 216.097656 150.65625 223.039062 146.960938 230.546875 144.839844 C 235.59375 143.410156 239.558594 142.140625 242.621094 141.234375 C 244.152344 140.785156 245.460938 140.421875 246.558594 140.175781 C 247.65625 139.929688 248.539062 139.804688 249.214844 139.804688 C 249.324219 139.804688 249.425781 139.808594 249.527344 139.8125 C 249.933594 139.835938 250.234375 139.917969 250.460938 140.027344 C 250.6875 140.140625 250.847656 140.277344 250.996094 140.492188 L 250.996094 140.496094 C 251.222656 140.824219 251.375 141.277344 251.46875 141.800781 C 251.5625 142.320312 251.605469 142.902344 251.667969 143.464844 C 251.816406 144.726562 251.941406 146.261719 252.039062 148.003906 C 252.121094 149.398438 252.1875 150.929688 252.238281 152.5625 C 252.339844 155.648438 252.390625 159.105469 252.390625 162.726562 C 252.386719 164.375 252.378906 166.0625 252.359375 167.757812 C 252.308594 172.078125 252.199219 176.492188 252.023438 180.691406 C 251.925781 183.078125 251.808594 185.402344 251.671875 187.589844 C 251.566406 189.292969 251.449219 190.914062 251.320312 192.433594 C 251.09375 195.136719 250.832031 197.511719 250.539062 199.382812 L 250.542969 199.382812 C 250.46875 199.835938 250.359375 200.179688 250.222656 200.421875 C 250.089844 200.664062 249.941406 200.816406 249.746094 200.941406 C 249.550781 201.058594 249.289062 201.152344 248.917969 201.195312 L 248.921875 201.195312 C 248.765625 201.214844 248.589844 201.222656 248.398438 201.222656 C 247.742188 201.226562 246.878906 201.105469 245.820312 200.871094 C 242.628906 200.171875 237.691406 198.472656 230.5 196.414062 C 230.078125 196.296875 229.652344 196.171875 229.214844 196.050781 C 221.289062 193.824219 214.714844 189.347656 210.128906 185.410156 C 207.824219 183.429688 206.015625 181.585938 204.792969 180.246094 C 204.179688 179.574219 203.714844 179.027344 203.398438 178.648438 C 203.246094 178.460938 203.125 178.316406 203.046875 178.214844 C 203.007812 178.167969 202.980469 178.128906 202.960938 178.105469 L 202.9375 178.078125 L 202.933594 178.070312 L 202.320312 178.539062 L 203.09375 178.539062 L 202.320312 178.539062 "/>
</g>
<path style=" stroke:none;fill-rule:nonzero;fill:rgb(64.709473%,21.958923%,16.079712%);fill-opacity:1;" d="M 185.582031 178.695312 C 185.972656 178.695312 186.480469 178.261719 186.9375 178.164062 C 187.328125 178.082031 187.757812 177.972656 188.253906 177.851562 C 188.472656 177.796875 188.738281 177.816406 189.03125 177.867188 C 189.757812 177.992188 190.625 178.316406 191.21875 178.195312 C 191.828125 178.066406 191.914062 178.132812 192.523438 178.078125 C 192.609375 178.070312 193.226562 177.894531 193.3125 177.890625 C 193.453125 177.878906 194.007812 177.992188 194.152344 178.023438 C 194.914062 178.191406 195.292969 178.730469 195.902344 178.691406 C 196.425781 178.660156 197.191406 178.441406 197.773438 178.324219 C 197.984375 178.285156 198.171875 178.257812 198.3125 178.257812 C 199.0625 178.257812 199.496094 178.261719 199.78125 178.269531 C 200.574219 178.285156 200.285156 178.539062 202.320312 178.539062 C 202.320312 176.9375 202.320312 175.117188 202.320312 173.511719 C 202.320312 170.921875 202.320312 168.332031 202.320312 165.742188 C 202.320312 164.222656 201.285156 162.921875 201.285156 161.40625 C 200.667969 161.304688 200.726562 161.449219 200.023438 161.246094 C 199.761719 161.171875 199.351562 161.121094 198.601562 161.121094 C 198.460938 161.121094 197.410156 161.203125 197.199219 161.246094 C 196.613281 161.359375 196.714844 161.523438 196.195312 161.558594 C 195.582031 161.59375 194.792969 160.960938 194.03125 160.789062 C 193.886719 160.757812 193.746094 160.742188 193.601562 160.753906 C 193.515625 160.757812 193.429688 160.765625 193.34375 160.773438 C 192.738281 160.832031 192.121094 160.933594 191.507812 161.058594 C 190.914062 161.179688 190.046875 160.855469 189.320312 160.730469 C 189.03125 160.679688 188.761719 160.660156 188.542969 160.714844 C 188.050781 160.839844 187.554688 161.011719 187.101562 161.15625 C 186.5625 161.335938 185.972656 161.699219 185.582031 161.699219 C 185.582031 163.21875 185.679688 164.222656 185.679688 165.742188 C 185.679688 168.332031 185.679688 170.921875 185.679688 173.511719 C 185.679688 175.117188 185.582031 177.09375 185.582031 178.695312 "/>
<path style=" stroke:none;fill-rule:nonzero;fill:rgb(100%,100%,100%);fill-opacity:1;" d="M 185.582031 178.695312 L 185.582031 179.464844 C 185.820312 179.464844 186.011719 179.40625 186.171875 179.34375 C 186.410156 179.25 186.597656 179.140625 186.761719 179.058594 C 186.921875 178.976562 187.050781 178.925781 187.097656 178.917969 L 187.09375 178.917969 C 187.511719 178.832031 187.945312 178.722656 188.441406 178.597656 C 188.453125 178.59375 188.492188 178.589844 188.550781 178.589844 C 188.636719 178.589844 188.757812 178.597656 188.898438 178.625 C 189.15625 178.667969 189.480469 178.753906 189.824219 178.832031 C 190.167969 178.910156 190.53125 178.988281 190.925781 178.988281 C 191.070312 178.988281 191.21875 178.980469 191.371094 178.949219 L 191.375 178.949219 C 191.652344 178.890625 191.753906 178.886719 191.898438 178.878906 C 192.042969 178.875 192.257812 178.875 192.59375 178.84375 L 192.585938 178.84375 C 192.679688 178.835938 192.699219 178.828125 192.742188 178.820312 C 192.863281 178.792969 193.023438 178.75 193.175781 178.710938 C 193.25 178.691406 193.320312 178.671875 193.371094 178.660156 L 193.421875 178.648438 L 193.425781 178.648438 L 193.328125 178.152344 L 193.367188 178.65625 C 193.421875 178.652344 193.425781 178.648438 193.425781 178.648438 L 193.328125 178.152344 L 193.367188 178.65625 L 193.378906 178.65625 L 193.328125 178.109375 L 193.332031 178.65625 L 193.378906 178.65625 L 193.328125 178.109375 L 193.332031 178.65625 L 193.332031 178.46875 L 193.320312 178.65625 L 193.332031 178.65625 L 193.332031 178.46875 L 193.320312 178.65625 C 193.339844 178.65625 193.503906 178.679688 193.640625 178.707031 C 193.785156 178.734375 193.929688 178.761719 193.980469 178.777344 L 193.984375 178.777344 C 194.210938 178.824219 194.402344 178.933594 194.675781 179.089844 C 194.808594 179.167969 194.964844 179.253906 195.15625 179.328125 C 195.347656 179.40625 195.582031 179.464844 195.84375 179.464844 L 195.933594 179.464844 L 195.953125 179.460938 C 196.296875 179.4375 196.640625 179.367188 196.984375 179.292969 C 197.328125 179.214844 197.660156 179.132812 197.921875 179.082031 C 198.113281 179.042969 198.265625 179.023438 198.3125 179.027344 C 199.058594 179.027344 199.488281 179.03125 199.765625 179.035156 C 199.921875 179.042969 199.984375 179.050781 200.054688 179.066406 C 200.109375 179.082031 200.179688 179.101562 200.289062 179.128906 C 200.453125 179.171875 200.683594 179.222656 200.996094 179.253906 C 201.316406 179.289062 201.730469 179.308594 202.320312 179.308594 C 202.523438 179.308594 202.722656 179.226562 202.867188 179.085938 C 203.011719 178.941406 203.09375 178.742188 203.09375 178.539062 C 203.09375 176.9375 203.09375 175.117188 203.09375 173.511719 C 203.09375 170.921875 203.09375 168.332031 203.09375 165.742188 C 203.089844 164.804688 202.78125 164.011719 202.527344 163.304688 C 202.265625 162.601562 202.054688 161.984375 202.058594 161.40625 C 202.058594 161.027344 201.785156 160.703125 201.410156 160.644531 C 201.152344 160.601562 200.957031 160.59375 200.820312 160.59375 L 200.714844 160.59375 C 200.652344 160.59375 200.628906 160.59375 200.566406 160.585938 C 200.503906 160.578125 200.402344 160.554688 200.238281 160.507812 C 199.859375 160.398438 199.386719 160.351562 198.601562 160.351562 C 198.554688 160.351562 198.519531 160.355469 198.46875 160.355469 C 198.300781 160.363281 198.019531 160.386719 197.742188 160.410156 C 197.605469 160.421875 197.472656 160.4375 197.355469 160.449219 C 197.234375 160.460938 197.148438 160.46875 197.050781 160.492188 L 197.046875 160.492188 C 196.863281 160.527344 196.710938 160.574219 196.582031 160.621094 C 196.484375 160.660156 196.40625 160.699219 196.355469 160.730469 C 196.273438 160.773438 196.265625 160.773438 196.265625 160.773438 C 196.265625 160.773438 196.246094 160.78125 196.144531 160.789062 L 196.148438 160.789062 L 196.140625 160.789062 C 196.121094 160.789062 196.039062 160.777344 195.917969 160.738281 C 195.738281 160.675781 195.484375 160.546875 195.195312 160.410156 C 194.90625 160.277344 194.582031 160.125 194.199219 160.039062 C 194.039062 160.003906 193.867188 159.980469 193.6875 159.980469 C 193.644531 159.980469 193.59375 159.980469 193.539062 159.988281 L 193.601562 160.753906 L 193.554688 159.984375 C 193.457031 159.992188 193.363281 160 193.269531 160.007812 L 193.273438 160.007812 C 192.628906 160.070312 191.984375 160.175781 191.355469 160.304688 C 191.328125 160.308594 191.28125 160.316406 191.21875 160.316406 C 191.046875 160.316406 190.769531 160.269531 190.460938 160.199219 C 190.148438 160.128906 189.808594 160.035156 189.453125 159.972656 C 189.257812 159.9375 189.054688 159.914062 188.84375 159.914062 C 188.6875 159.914062 188.527344 159.925781 188.351562 159.96875 L 188.355469 159.96875 C 187.816406 160.101562 187.308594 160.28125 186.863281 160.425781 L 186.859375 160.425781 C 186.519531 160.539062 186.222656 160.683594 185.980469 160.785156 C 185.859375 160.839844 185.753906 160.882812 185.675781 160.90625 L 185.59375 160.925781 L 185.574219 160.929688 L 185.582031 160.980469 L 185.582031 160.929688 L 185.574219 160.929688 L 185.582031 160.980469 L 185.582031 160.929688 C 185.378906 160.929688 185.179688 161.011719 185.035156 161.15625 C 184.890625 161.296875 184.808594 161.496094 184.808594 161.699219 C 184.808594 163.257812 184.910156 164.261719 184.910156 165.742188 C 184.910156 168.332031 184.910156 170.921875 184.910156 173.511719 C 184.910156 175.085938 184.808594 177.0625 184.808594 178.695312 C 184.808594 178.898438 184.890625 179.097656 185.035156 179.238281 C 185.179688 179.382812 185.378906 179.464844 185.582031 179.464844 L 185.582031 178.695312 L 186.351562 178.695312 C 186.351562 177.121094 186.453125 175.144531 186.453125 173.511719 C 186.453125 170.921875 186.453125 168.332031 186.453125 165.742188 C 186.453125 164.183594 186.351562 163.179688 186.351562 161.699219 L 185.582031 161.699219 L 185.582031 162.46875 C 185.800781 162.46875 185.972656 162.425781 186.140625 162.375 C 186.378906 162.296875 186.59375 162.199219 186.800781 162.109375 C 187.003906 162.019531 187.191406 161.9375 187.339844 161.890625 L 187.335938 161.890625 C 187.804688 161.738281 188.28125 161.574219 188.730469 161.460938 L 188.734375 161.460938 C 188.742188 161.457031 188.78125 161.453125 188.84375 161.453125 C 188.925781 161.453125 189.046875 161.464844 189.191406 161.488281 C 189.445312 161.53125 189.769531 161.617188 190.113281 161.695312 C 190.457031 161.773438 190.820312 161.851562 191.21875 161.855469 C 191.359375 161.855469 191.507812 161.84375 191.664062 161.8125 C 192.257812 161.691406 192.847656 161.59375 193.417969 161.539062 L 193.421875 161.539062 C 193.496094 161.53125 193.574219 161.527344 193.652344 161.523438 L 193.664062 161.519531 L 193.6875 161.519531 C 193.730469 161.519531 193.792969 161.527344 193.863281 161.542969 C 194.09375 161.589844 194.433594 161.75 194.804688 161.929688 C 194.992188 162.019531 195.1875 162.113281 195.40625 162.1875 C 195.621094 162.261719 195.859375 162.328125 196.140625 162.328125 L 196.242188 162.328125 C 196.414062 162.316406 196.566406 162.292969 196.710938 162.25 C 196.816406 162.214844 196.910156 162.175781 196.976562 162.140625 C 197.078125 162.089844 197.105469 162.070312 197.140625 162.058594 C 197.175781 162.042969 197.226562 162.023438 197.347656 162 L 197.332031 161.921875 L 197.34375 162 L 197.347656 162 L 197.332031 161.921875 L 197.34375 162 C 197.355469 161.996094 197.464844 161.984375 197.582031 161.972656 C 197.769531 161.953125 198.015625 161.929688 198.222656 161.914062 C 198.324219 161.90625 198.421875 161.902344 198.492188 161.898438 L 198.582031 161.890625 L 198.605469 161.890625 L 198.601562 161.875 L 198.601562 161.890625 L 198.605469 161.890625 L 198.601562 161.875 L 198.601562 161.890625 C 199.316406 161.890625 199.671875 161.945312 199.808594 161.984375 C 200.015625 162.046875 200.183594 162.085938 200.335938 162.109375 C 200.488281 162.128906 200.621094 162.136719 200.714844 162.132812 L 200.820312 162.132812 C 200.910156 162.136719 200.980469 162.136719 201.164062 162.164062 L 201.285156 161.40625 L 200.511719 161.40625 C 200.515625 162.34375 200.824219 163.132812 201.078125 163.835938 C 201.339844 164.542969 201.550781 165.160156 201.546875 165.742188 C 201.546875 168.332031 201.546875 170.921875 201.550781 173.511719 C 201.546875 175.117188 201.546875 176.9375 201.546875 178.539062 L 202.320312 178.539062 L 202.320312 177.769531 C 201.828125 177.769531 201.484375 177.753906 201.246094 177.734375 C 200.875 177.695312 200.769531 177.664062 200.601562 177.617188 C 200.433594 177.570312 200.15625 177.5 199.800781 177.5 L 199.804688 177.5 C 199.5 177.492188 199.0625 177.488281 198.3125 177.488281 C 198.074219 177.488281 197.859375 177.523438 197.625 177.570312 C 197.304688 177.632812 196.964844 177.71875 196.648438 177.789062 C 196.332031 177.863281 196.035156 177.914062 195.855469 177.925781 L 195.902344 178.691406 L 195.875 177.921875 L 195.84375 177.925781 C 195.816406 177.925781 195.785156 177.921875 195.71875 177.894531 C 195.625 177.863281 195.460938 177.761719 195.230469 177.636719 C 195.003906 177.507812 194.699219 177.355469 194.320312 177.273438 L 194.324219 177.273438 C 194.238281 177.253906 194.070312 177.21875 193.890625 177.1875 C 193.800781 177.167969 193.707031 177.15625 193.617188 177.140625 C 193.523438 177.128906 193.449219 177.121094 193.332031 177.117188 L 193.246094 177.121094 L 193.3125 177.890625 L 193.257812 177.121094 C 193.160156 177.128906 193.136719 177.136719 193.09375 177.144531 C 192.96875 177.171875 192.808594 177.214844 192.65625 177.253906 C 192.582031 177.273438 192.511719 177.292969 192.460938 177.304688 L 192.40625 177.316406 L 192.5 177.867188 L 192.453125 177.3125 L 192.40625 177.316406 L 192.5 177.867188 L 192.453125 177.3125 L 192.449219 177.3125 C 192.179688 177.335938 192.046875 177.335938 191.84375 177.339844 C 191.640625 177.347656 191.394531 177.371094 191.0625 177.441406 L 191.066406 177.441406 C 191.035156 177.445312 190.988281 177.449219 190.925781 177.449219 C 190.753906 177.453125 190.480469 177.40625 190.171875 177.335938 C 189.863281 177.261719 189.519531 177.167969 189.164062 177.109375 C 188.964844 177.074219 188.765625 177.050781 188.550781 177.050781 C 188.398438 177.050781 188.234375 177.0625 188.066406 177.105469 C 187.570312 177.226562 187.144531 177.335938 186.78125 177.410156 L 186.777344 177.410156 C 186.378906 177.5 186.101562 177.671875 185.878906 177.785156 C 185.765625 177.839844 185.675781 177.886719 185.613281 177.90625 L 185.558594 177.925781 L 185.582031 178.105469 L 185.582031 177.925781 L 185.558594 177.925781 L 185.582031 178.105469 L 185.582031 177.925781 L 185.582031 178.695312 L 186.351562 178.695312 L 185.582031 178.695312 "/>
</g>
</svg>
